<svg xmlns="http://www.w3.org/2000/svg" xmlns:xlink="http://www.w3.org/1999/xlink" width="100" zoomAndPan="magnify" viewBox="0 0 75 74.999997" height="100" preserveAspectRatio="xMidYMid meet" version="1.0"><defs><g/><clipPath id="36e133ff57"><path d="M 26.363281 19.429688 L 41 19.429688 L 41 42 L 26.363281 42 Z M 26.363281 19.429688 " clip-rule="nonzero"/></clipPath><clipPath id="95ab255273"><path d="M 34 22 L 48.863281 22 L 48.863281 44.929688 L 34 44.929688 Z M 34 22 " clip-rule="nonzero"/></clipPath></defs><g clip-path="url(#36e133ff57)"><path fill="#ffffff" d="M 36.351562 39.726562 C 36.351562 35.207031 36.351562 30.6875 36.351562 26.171875 L 33.34375 27.90625 L 33.34375 30.78125 L 29.371094 30.78125 L 29.371094 27.597656 C 33.082031 25.453125 36.792969 23.3125 40.503906 21.167969 L 37.496094 19.429688 C 33.785156 21.574219 30.074219 23.714844 26.363281 25.859375 C 26.363281 30.144531 26.363281 34.429688 26.363281 38.714844 L 29.371094 40.453125 L 29.371094 33.789062 L 33.34375 33.789062 L 33.34375 41.460938 Z M 36.351562 39.726562 " fill-opacity="1" fill-rule="nonzero"/></g><g clip-path="url(#95ab255273)"><path fill="#ffffff" d="M 48.628906 29.332031 L 48.628906 25.859375 L 42.757812 22.46875 C 41.386719 23.261719 40.011719 24.054688 38.640625 24.847656 C 38.640625 29.367188 38.640625 33.886719 38.640625 38.402344 L 41.648438 36.667969 L 41.648438 33.789062 L 45.621094 33.789062 L 45.621094 36.976562 C 41.910156 39.121094 38.199219 41.261719 34.488281 43.40625 L 37.496094 45.140625 L 48.628906 38.714844 C 48.628906 36.070312 48.628906 33.425781 48.628906 30.78125 L 41.648438 30.78125 L 41.648438 25.300781 Z M 48.628906 29.332031 " fill-opacity="1" fill-rule="nonzero"/></g><g fill="#ffffff" fill-opacity="1"><g transform="translate(19.37692, 52.108456)"><g><path d="M 2.265625 0 L 1.15625 0 L 1.15625 -3.21875 L 0.140625 -3.21875 L 0.140625 -4.140625 L 3.28125 -4.140625 L 3.28125 -3.21875 L 2.265625 -3.21875 Z M 2.265625 0 "/></g></g></g><g fill="#ffffff" fill-opacity="1"><g transform="translate(23.465731, 52.108456)"><g><path d="M 1.796875 -4.140625 C 2.171875 -4.140625 2.484375 -4.09375 2.734375 -4 C 2.984375 -3.90625 3.171875 -3.765625 3.296875 -3.578125 C 3.421875 -3.398438 3.484375 -3.179688 3.484375 -2.921875 C 3.484375 -2.742188 3.453125 -2.585938 3.390625 -2.453125 C 3.335938 -2.316406 3.257812 -2.191406 3.15625 -2.078125 C 3.050781 -1.972656 2.925781 -1.878906 2.78125 -1.796875 L 4 0 L 2.71875 0 L 1.84375 -1.5 L 1.5625 -1.5 L 1.5625 0 L 0.453125 0 L 0.453125 -4.140625 Z M 1.78125 -3.296875 L 1.5625 -3.296875 L 1.5625 -2.34375 L 1.78125 -2.34375 C 1.945312 -2.34375 2.082031 -2.378906 2.1875 -2.453125 C 2.300781 -2.535156 2.359375 -2.671875 2.359375 -2.859375 C 2.359375 -2.992188 2.3125 -3.097656 2.21875 -3.171875 C 2.132812 -3.253906 1.988281 -3.296875 1.78125 -3.296875 Z M 1.78125 -3.296875 "/></g></g></g><g fill="#ffffff" fill-opacity="1"><g transform="translate(28.053047, 52.108456)"><g><path d="M 0.453125 0 L 0.453125 -4.140625 L 1.578125 -4.140625 L 1.578125 0 Z M 0.453125 0 "/></g></g></g><g fill="#ffffff" fill-opacity="1"><g transform="translate(30.73415, 52.108456)"><g><path d="M 3.953125 -2.15625 C 3.953125 -1.675781 3.863281 -1.273438 3.6875 -0.953125 C 3.507812 -0.640625 3.257812 -0.398438 2.9375 -0.234375 C 2.613281 -0.078125 2.226562 0 1.78125 0 L 0.453125 0 L 0.453125 -4.140625 L 1.875 -4.140625 C 2.320312 -4.140625 2.695312 -4.0625 3 -3.90625 C 3.3125 -3.75 3.546875 -3.523438 3.703125 -3.234375 C 3.867188 -2.941406 3.953125 -2.582031 3.953125 -2.15625 Z M 2.796875 -2.125 C 2.796875 -2.375 2.757812 -2.578125 2.6875 -2.734375 C 2.625 -2.898438 2.523438 -3.023438 2.390625 -3.109375 C 2.265625 -3.191406 2.097656 -3.234375 1.890625 -3.234375 L 1.5625 -3.234375 L 1.5625 -0.921875 L 1.8125 -0.921875 C 2.15625 -0.921875 2.40625 -1.019531 2.5625 -1.21875 C 2.71875 -1.414062 2.796875 -1.71875 2.796875 -2.125 Z M 2.796875 -2.125 "/></g></g></g><g fill="#ffffff" fill-opacity="1"><g transform="translate(35.652859, 52.108456)"><g><path d="M 2.90625 0 L 0.453125 0 L 0.453125 -4.140625 L 2.90625 -4.140625 L 2.90625 -3.234375 L 1.5625 -3.234375 L 1.5625 -2.59375 L 2.8125 -2.59375 L 2.8125 -1.6875 L 1.5625 -1.6875 L 1.5625 -0.90625 L 2.90625 -0.90625 Z M 2.90625 0 "/></g></g></g><g fill="#ffffff" fill-opacity="1"><g transform="translate(39.498083, 52.108456)"><g><path d="M 4.390625 0 L 2.921875 0 L 1.40625 -2.921875 L 1.390625 -2.921875 C 1.390625 -2.828125 1.394531 -2.71875 1.40625 -2.59375 C 1.414062 -2.46875 1.421875 -2.335938 1.421875 -2.203125 C 1.429688 -2.078125 1.4375 -1.960938 1.4375 -1.859375 L 1.4375 0 L 0.453125 0 L 0.453125 -4.140625 L 1.90625 -4.140625 L 3.40625 -1.265625 L 3.4375 -1.265625 C 3.425781 -1.347656 3.414062 -1.445312 3.40625 -1.5625 C 3.40625 -1.6875 3.398438 -1.8125 3.390625 -1.9375 C 3.390625 -2.0625 3.390625 -2.171875 3.390625 -2.265625 L 3.390625 -4.140625 L 4.390625 -4.140625 Z M 4.390625 0 "/></g></g></g><g fill="#ffffff" fill-opacity="1"><g transform="translate(44.997436, 52.108456)"><g><path d="M 0.453125 0 L 0.453125 -4.140625 L 1.578125 -4.140625 L 1.578125 0 Z M 0.453125 0 "/></g></g></g><g fill="#ffffff" fill-opacity="1"><g transform="translate(47.678539, 52.108456)"><g><path d="M 2.265625 0 L 1.15625 0 L 1.15625 -3.21875 L 0.140625 -3.21875 L 0.140625 -4.140625 L 3.28125 -4.140625 L 3.28125 -3.21875 L 2.265625 -3.21875 Z M 2.265625 0 "/></g></g></g><g fill="#ffffff" fill-opacity="1"><g transform="translate(51.76735, 52.108456)"><g><path d="M 1.921875 -2.609375 L 2.640625 -4.140625 L 3.84375 -4.140625 L 2.484375 -1.609375 L 2.484375 0 L 1.359375 0 L 1.359375 -1.578125 L 0 -4.140625 L 1.21875 -4.140625 Z M 1.921875 -2.609375 "/></g></g></g></svg>